<svg width="60" height="60" viewBox="0 0 60 60" fill="none" xmlns="http://www.w3.org/2000/svg">
<path d="M24.6667 18V22C24.6667 22.7072 24.3857 23.3855 23.8856 23.8856C23.3855 24.3857 22.7072 24.6667 22 24.6667H18M42 24.6667H38C37.2928 24.6667 36.6145 24.3857 36.1144 23.8856C35.6143 23.3855 35.3333 22.7072 35.3333 22V18M35.3333 42V38C35.3333 37.2928 35.6143 36.6145 36.1144 36.1144C36.6145 35.6143 37.2928 35.3333 38 35.3333H42M18 35.3333H22C22.7072 35.3333 23.3855 35.6143 23.8856 36.1144C24.3857 36.6145 24.6667 37.2928 24.6667 38V42" stroke="white" stroke-width="2" stroke-linecap="round" stroke-linejoin="round"/>
</svg>
