<svg width="60" height="60" viewBox="0 0 60 60" fill="none" xmlns="http://www.w3.org/2000/svg">
<rect width="60" height="60" rx="30" fill="white"/>
<path fill-rule="evenodd" clip-rule="evenodd" d="M28.25 19C28.25 17.7574 27.2426 16.75 26 16.75C24.7574 16.75 23.75 17.7574 23.75 19L23.75 41C23.75 42.2426 24.7574 43.25 26 43.25C27.2426 43.25 28.25 42.2426 28.25 41L28.25 19ZM20.25 27C20.25 25.7574 19.2426 24.75 18 24.75C16.7574 24.75 15.75 25.7574 15.75 27V33C15.75 34.2426 16.7574 35.25 18 35.25C19.2426 35.25 20.25 34.2426 20.25 33V27ZM34 21.75C35.2426 21.75 36.25 22.7574 36.25 24V36C36.25 37.2426 35.2426 38.25 34 38.25C32.7574 38.25 31.75 37.2426 31.75 36V24C31.75 22.7574 32.7574 21.75 34 21.75ZM44.25 27C44.25 25.7574 43.2426 24.75 42 24.75C40.7574 24.75 39.75 25.7574 39.75 27V33C39.75 34.2426 40.7574 35.25 42 35.25C43.2426 35.25 44.25 34.2426 44.25 33V27Z" fill="url(#paint0_linear_14_105)"/>
<defs>
<linearGradient id="paint0_linear_14_105" x1="16" y1="18" x2="41" y2="42" gradientUnits="userSpaceOnUse">
<stop stop-color="#CC65FF"/>
<stop offset="1" stop-color="#4870E0"/>
</linearGradient>
</defs>
</svg>
