<svg width="356" height="312" viewBox="0 0 356 312" fill="none" xmlns="http://www.w3.org/2000/svg">
<circle cx="178" cy="156" r="108" stroke="#DDE0E6"/>
<circle cx="178" cy="156" r="72" stroke="#DDE0E6" stroke-dasharray="3 5"/>
<circle cx="178" cy="156" r="36" stroke="#DDE0E6" stroke-dasharray="3 5"/>
<path d="M178 48V156" stroke="#DDE0E6"/>
<path d="M241 244L178 156" stroke="#DDE0E6"/>
<path d="M281 123L178 156" stroke="#DDE0E6"/>
<path d="M115 244L178 156" stroke="#DDE0E6"/>
<path d="M75 123L178 156" stroke="#DDE0E6"/>
<path d="M47.2793 116.277C47.2793 116.849 47.4893 117.398 47.9092 117.925C48.334 118.453 48.9053 118.902 49.623 119.273C50.3457 119.644 51.1318 119.886 51.9814 119.998L51.4395 121.141C50.7266 121.028 50.0503 120.833 49.4106 120.555C48.771 120.276 48.2046 119.932 47.7114 119.522C47.2231 119.107 46.8374 118.646 46.5542 118.138C46.271 118.646 45.8828 119.107 45.3896 119.522C44.9014 119.932 44.3398 120.276 43.7051 120.555C43.0703 120.828 42.3965 121.023 41.6836 121.141L41.127 119.998C41.9766 119.886 42.7603 119.646 43.478 119.28C44.1958 118.914 44.7671 118.467 45.1919 117.94C45.6167 117.408 45.8291 116.854 45.8291 116.277V115.56H47.2793V116.277ZM40.5557 122.43H52.5234V123.572H47.1914V128.245H45.8291V123.572H40.5557V122.43ZM60.2139 115.618C60.2139 116.111 60.4214 116.575 60.8364 117.01C61.2515 117.439 61.813 117.803 62.521 118.101C63.229 118.394 64.0078 118.587 64.8574 118.68L64.374 119.734C63.2803 119.603 62.2964 119.317 61.4224 118.877C60.5532 118.433 59.9111 117.881 59.4961 117.222C59.0762 117.881 58.4316 118.431 57.5625 118.87C56.6934 119.31 55.7168 119.598 54.6328 119.734L54.1494 118.68C54.999 118.587 55.7778 118.394 56.4858 118.101C57.1938 117.803 57.7554 117.439 58.1704 117.01C58.5854 116.575 58.793 116.111 58.793 115.618V115.179H60.2139V115.618ZM53.5195 120.496H65.4873V121.609H60.1846V122.781H63.9785V125.887H56.332V127.044H64.3447V128.113H54.9697V124.876H62.6016V123.851H54.9551V122.781H58.793V121.609H53.5195V120.496Z" fill="#7A8599"/>
<path d="M182.814 29.2549H184.718V30.3828H182.814V33.6641H181.422V26.1201H182.814V29.2549ZM172.707 30.002C172.702 29.3965 172.848 28.8569 173.146 28.3833C173.449 27.9097 173.866 27.541 174.398 27.2773C174.931 27.0137 175.529 26.8818 176.193 26.8818C176.857 26.8818 177.453 27.0137 177.98 27.2773C178.512 27.541 178.93 27.9097 179.232 28.3833C179.535 28.8569 179.689 29.3965 179.694 30.002C179.689 30.6025 179.535 31.1396 179.232 31.6133C178.93 32.0869 178.512 32.458 177.98 32.7266C177.453 32.9902 176.857 33.1221 176.193 33.1221C175.529 33.1221 174.931 32.9902 174.398 32.7266C173.866 32.458 173.449 32.0869 173.146 31.6133C172.848 31.1396 172.702 30.6025 172.707 30.002ZM174.069 30.002C174.064 30.3828 174.152 30.7197 174.333 31.0127C174.518 31.3057 174.772 31.5352 175.094 31.7012C175.417 31.8623 175.783 31.9453 176.193 31.9502C176.603 31.9453 176.969 31.8623 177.292 31.7012C177.614 31.5352 177.868 31.3057 178.053 31.0127C178.239 30.7197 178.332 30.3828 178.332 30.002C178.332 29.6211 178.239 29.2842 178.053 28.9912C177.868 28.6934 177.611 28.4639 177.284 28.3027C176.962 28.1367 176.598 28.0537 176.193 28.0537C175.788 28.0537 175.421 28.1367 175.094 28.3027C174.772 28.4639 174.518 28.6934 174.333 28.9912C174.152 29.2842 174.064 29.6211 174.069 30.002ZM174.435 34.2646H182.814V39.084H174.435V34.2646ZM181.437 37.9561V35.3779H175.797V37.9561H181.437Z" fill="#7A8599"/>
<path d="M301.367 129.245H299.99V116.12H301.367V129.245ZM290.513 125.319C292.148 125.31 293.389 125.292 294.233 125.268V122.536H291.523V117.365H292.93V121.408H298.394V122.536H295.625V125.217C296.919 125.163 298.096 125.07 299.155 124.938L299.229 125.979C298.076 126.164 296.875 126.293 295.625 126.367C294.375 126.435 293.071 126.469 291.714 126.469L290.688 126.462L290.513 125.319ZM315.4 122.917H310.112V124.016H313.906V126.975H306.26V128.059H314.272V129.113H304.897V126.008H312.529V125.026H304.883V124.016H308.735V122.917H303.462V121.877H315.4V122.917ZM304.048 120.31C304.883 120.266 305.627 120.153 306.282 119.973C306.936 119.792 307.466 119.558 307.871 119.27C308.276 118.981 308.525 118.654 308.618 118.288H304.648V117.219H308.735V116.062H310.112V117.219H314.214V118.288H310.222C310.315 118.654 310.562 118.981 310.962 119.27C311.367 119.558 311.899 119.792 312.559 119.973C313.223 120.153 313.975 120.266 314.814 120.31L314.39 121.364C313.218 121.276 312.197 121.064 311.328 120.727C310.459 120.39 309.824 119.941 309.424 119.379C309.023 119.941 308.386 120.39 307.512 120.727C306.643 121.064 305.62 121.276 304.443 121.364L304.048 120.31ZM323.809 118.273H316.426V117.204H319.502V115.959H320.879V117.204H323.809V118.273ZM317.158 121.057C317.158 120.607 317.285 120.214 317.539 119.877C317.793 119.541 318.147 119.282 318.601 119.101C319.06 118.92 319.585 118.83 320.176 118.83C320.771 118.83 321.296 118.92 321.75 119.101C322.209 119.282 322.566 119.541 322.82 119.877C323.079 120.214 323.208 120.607 323.208 121.057C323.208 121.501 323.079 121.892 322.82 122.229C322.566 122.565 322.209 122.827 321.75 123.012C321.296 123.193 320.771 123.283 320.176 123.283C319.585 123.283 319.06 123.193 318.601 123.012C318.147 122.827 317.793 122.565 317.539 122.229C317.285 121.892 317.158 121.501 317.158 121.057ZM318.462 121.057C318.462 121.301 318.533 121.516 318.674 121.701C318.816 121.887 319.016 122.031 319.275 122.133C319.539 122.236 319.839 122.287 320.176 122.287C320.508 122.287 320.803 122.236 321.062 122.133C321.326 122.031 321.531 121.887 321.677 121.701C321.824 121.516 321.899 121.301 321.904 121.057C321.899 120.812 321.824 120.6 321.677 120.419C321.531 120.234 321.326 120.092 321.062 119.995C320.803 119.897 320.508 119.851 320.176 119.855C319.839 119.851 319.539 119.897 319.275 119.995C319.016 120.092 318.816 120.234 318.674 120.419C318.533 120.6 318.462 120.812 318.462 121.057ZM318.755 124.001H327.339V126.975H320.176V128.059H327.705V129.113H318.784V126.008H325.962V125.041H318.755V124.001ZM323.838 121.247H325.962V119.987H323.853V118.903H325.962V116.12H327.339V123.415H325.962V122.331H323.838V121.247Z" fill="#7A8599"/>
<path d="M98.4395 260.166H97.0479V253.12H98.4395V260.166ZM87.8193 256.768C87.8193 256.177 87.9707 255.649 88.2734 255.186C88.5762 254.722 88.9937 254.363 89.5259 254.109C90.0581 253.85 90.6562 253.721 91.3203 253.721C91.9844 253.721 92.5801 253.85 93.1074 254.109C93.6396 254.363 94.0547 254.722 94.3525 255.186C94.6553 255.649 94.8066 256.177 94.8066 256.768C94.8066 257.358 94.6553 257.886 94.3525 258.35C94.0547 258.809 93.6396 259.167 93.1074 259.426C92.5801 259.68 91.9844 259.805 91.3203 259.8C90.6562 259.805 90.0581 259.68 89.5259 259.426C88.9937 259.167 88.5762 258.809 88.2734 258.35C87.9707 257.886 87.8193 257.358 87.8193 256.768ZM89.1816 256.768C89.1816 257.139 89.272 257.468 89.4526 257.756C89.6333 258.04 89.8872 258.262 90.2144 258.423C90.5415 258.579 90.9102 258.657 91.3203 258.657C91.7256 258.657 92.0894 258.579 92.4116 258.423C92.7339 258.262 92.9854 258.04 93.166 257.756C93.3516 257.468 93.4443 257.139 93.4443 256.768C93.4443 256.401 93.3516 256.077 93.166 255.793C92.9854 255.505 92.7339 255.283 92.4116 255.127C92.0894 254.971 91.7256 254.893 91.3203 254.893C90.9102 254.893 90.5415 254.971 90.2144 255.127C89.8872 255.283 89.6333 255.505 89.4526 255.793C89.272 256.077 89.1816 256.401 89.1816 256.768ZM89.8555 260.796H91.2178V262.275H97.0625V260.796H98.4395V266.084H89.8555V260.796ZM97.0625 264.941V263.374H91.2178V264.941H97.0625ZM111.433 263.081H110.041V261.821H107.404V260.84H110.041V253.135H111.433V263.081ZM100.622 259.126C102.36 259.111 103.884 259.08 105.192 259.031C106.501 258.982 107.756 258.882 108.957 258.73L109.045 259.727C108.063 259.893 106.911 260.022 105.588 260.115V262.671H104.196V260.188C103.347 260.222 102.16 260.239 100.637 260.239L100.461 259.126H100.622ZM101.486 255.947C101.486 255.488 101.621 255.085 101.889 254.739C102.163 254.387 102.546 254.116 103.039 253.926C103.537 253.73 104.108 253.633 104.753 253.633C105.388 253.633 105.952 253.73 106.445 253.926C106.938 254.116 107.321 254.387 107.595 254.739C107.868 255.085 108.005 255.488 108.005 255.947C108.005 256.406 107.868 256.809 107.595 257.156C107.321 257.498 106.938 257.764 106.445 257.954C105.952 258.14 105.388 258.232 104.753 258.232C104.108 258.232 103.54 258.14 103.046 257.954C102.553 257.764 102.17 257.498 101.896 257.156C101.623 256.809 101.486 256.406 101.486 255.947ZM102.277 262.114H103.654V264.839H111.755V265.967H102.277V262.114ZM102.805 255.947C102.805 256.201 102.885 256.423 103.046 256.614C103.208 256.804 103.435 256.951 103.728 257.053C104.025 257.156 104.367 257.207 104.753 257.207C105.124 257.207 105.456 257.156 105.749 257.053C106.042 256.951 106.271 256.804 106.438 256.614C106.604 256.423 106.687 256.201 106.687 255.947C106.687 255.688 106.604 255.464 106.438 255.273C106.271 255.078 106.042 254.929 105.749 254.827C105.456 254.719 105.124 254.668 104.753 254.673C104.367 254.668 104.025 254.719 103.728 254.827C103.435 254.929 103.208 255.078 103.046 255.273C102.885 255.464 102.805 255.688 102.805 255.947Z" fill="#7A8599"/>
<path d="M254.367 260.562H252.976V253.135H254.367V260.562ZM243.542 259.17C244.211 258.945 244.794 258.616 245.292 258.181C245.791 257.742 246.171 257.239 246.435 256.672C246.699 256.106 246.833 255.518 246.838 254.907V253.633H248.259V254.907C248.259 255.493 248.391 256.055 248.654 256.592C248.918 257.124 249.294 257.595 249.782 258.005C250.275 258.416 250.852 258.73 251.511 258.95L250.822 260.02C250.065 259.771 249.406 259.397 248.845 258.899C248.283 258.401 247.854 257.812 247.556 257.134C247.258 257.866 246.823 258.503 246.252 259.045C245.681 259.587 245.007 259.995 244.23 260.269L243.542 259.17ZM245.739 261.265H254.367V266.084H245.739V261.265ZM253.005 264.956V262.378H247.116V264.956H253.005ZM266.936 254.937V255.376C266.936 255.996 266.914 256.599 266.87 257.185C266.826 257.766 266.738 258.398 266.606 259.082H268.459V260.225H256.447V259.082H265.207C265.358 258.325 265.454 257.646 265.493 257.046C265.537 256.44 265.559 255.767 265.559 255.024H257.956V253.896H266.936V254.937ZM258.015 261.587H259.392V264.824H267.331V265.967H258.015V261.587ZM280.354 260.898H278.962V259.302H275.651V258.159H278.962V256.562H275.791C275.371 257.607 274.68 258.501 273.718 259.243C272.756 259.985 271.56 260.562 270.129 260.972L269.572 259.888C271.12 259.448 272.336 258.826 273.22 258.02C274.108 257.214 274.616 256.279 274.743 255.215H270.246V254.072H276.252C276.252 254.536 276.206 255 276.113 255.464H278.962V253.135H280.354V260.898ZM271.608 263.608C271.608 263.086 271.789 262.632 272.15 262.246C272.512 261.86 273.024 261.565 273.688 261.36C274.357 261.15 275.139 261.045 276.032 261.045C276.916 261.045 277.69 261.15 278.354 261.36C279.018 261.565 279.531 261.86 279.892 262.246C280.258 262.632 280.441 263.086 280.441 263.608C280.441 264.136 280.258 264.595 279.892 264.985C279.531 265.371 279.018 265.667 278.354 265.872C277.69 266.082 276.916 266.187 276.032 266.187C275.139 266.187 274.357 266.082 273.688 265.872C273.024 265.667 272.512 265.371 272.15 264.985C271.789 264.595 271.608 264.136 271.608 263.608ZM272.985 263.608C272.985 263.911 273.107 264.172 273.352 264.392C273.601 264.612 273.952 264.78 274.406 264.897C274.865 265.015 275.407 265.073 276.032 265.073C276.643 265.073 277.175 265.015 277.629 264.897C278.083 264.78 278.432 264.612 278.676 264.392C278.925 264.172 279.05 263.911 279.05 263.608C279.05 263.301 278.928 263.037 278.684 262.817C278.439 262.598 278.093 262.432 277.644 262.319C277.199 262.202 276.674 262.144 276.069 262.144C275.107 262.144 274.353 262.271 273.806 262.524C273.259 262.778 272.985 263.14 272.985 263.608ZM286.389 255.596C286.389 256.094 286.489 256.58 286.689 257.053C286.889 257.522 287.185 257.947 287.575 258.328C287.971 258.704 288.444 258.999 288.996 259.214L288.249 260.283C287.663 260.049 287.155 259.717 286.726 259.287C286.296 258.853 285.961 258.352 285.722 257.786C285.473 258.42 285.124 258.984 284.675 259.478C284.226 259.971 283.693 260.352 283.078 260.62L282.316 259.551C282.888 259.302 283.378 258.962 283.789 258.533C284.199 258.103 284.509 257.634 284.719 257.126C284.934 256.614 285.041 256.104 285.041 255.596V253.911H286.389V255.596ZM284.646 261.748H293.566V266.245H292.189V262.876H284.646V261.748ZM289.421 253.354H290.71V256.475H292.248V253.135H293.566V261.06H292.248V257.632H290.71V260.986H289.421V253.354Z" fill="#7A8599"/>
<g style="mix-blend-mode:multiply">
<path d="M76 123.5L177.5 48L264.5 128L232 232L125 230.5L76 123.5Z" fill="url(#paint0_radial_14_277)"/>
</g>
<defs>
<radialGradient id="paint0_radial_14_277" cx="0" cy="0" r="1" gradientUnits="userSpaceOnUse" gradientTransform="translate(177.456 156.619) rotate(-90.2406) scale(108.62 126.287)">
<stop stop-color="#8151E0" stop-opacity="0.6"/>
<stop offset="1" stop-color="#8151E0"/>
</radialGradient>
</defs>
</svg>
