<svg width="81" height="28" viewBox="0 0 81 28" fill="none" xmlns="http://www.w3.org/2000/svg">
<path d="M0.624 27C0.24 27 0.0480001 26.808 0.0480001 26.424V4.088C0.0480001 3.704 0.24 3.512 0.624 3.512H6.768C7.152 3.512 7.344 3.704 7.344 4.088V20.088H16.816C17.2 20.088 17.392 20.28 17.392 20.664V26.424C17.392 26.808 17.2 27 16.816 27H0.624ZM23.3388 8.024C22.2934 8.024 21.4081 7.69333 20.6828 7.032C19.9574 6.37067 19.5948 5.51733 19.5948 4.472C19.5948 3.40533 19.9574 2.552 20.6828 1.912C21.4081 1.25067 22.2934 0.919998 23.3388 0.919998C24.4054 0.919998 25.2908 1.25067 25.9948 1.912C26.7201 2.552 27.0828 3.40533 27.0828 4.472C27.0828 5.51733 26.7201 6.37067 25.9948 7.032C25.2908 7.69333 24.4054 8.024 23.3388 8.024ZM20.3948 27C20.0108 27 19.8188 26.808 19.8188 26.424V10.232C19.8188 9.848 20.0108 9.656 20.3948 9.656H26.2828C26.6668 9.656 26.8588 9.848 26.8588 10.232V26.424C26.8588 26.808 26.6668 27 26.2828 27H20.3948ZM42.1008 27.448C39.6688 27.448 37.5354 26.936 35.7008 25.912C33.8874 24.8667 32.4688 23.4267 31.4448 21.592C30.4421 19.7573 29.9408 17.6453 29.9408 15.256C29.9408 13.464 30.2501 11.8213 30.8688 10.328C31.4874 8.83467 32.3408 7.544 33.4288 6.456C34.5381 5.368 35.8288 4.536 37.3008 3.96C38.7728 3.36267 40.3728 3.064 42.1008 3.064C44.7674 3.064 46.9754 3.65067 48.7248 4.824C50.4954 5.976 51.8181 7.64 52.6928 9.816C52.8421 10.2 52.7248 10.4453 52.3408 10.552L46.2608 12.152C45.9621 12.2373 45.7168 12.1413 45.5248 11.864C45.1194 11.2453 44.6288 10.808 44.0528 10.552C43.4981 10.2747 42.8368 10.136 42.0688 10.136C40.7674 10.136 39.6688 10.5947 38.7728 11.512C37.8981 12.408 37.4608 13.656 37.4608 15.256C37.4608 16.856 37.9088 18.1147 38.8048 19.032C39.7008 19.928 40.7994 20.376 42.1008 20.376C42.9968 20.376 43.7968 20.2053 44.5008 19.864C45.2261 19.5013 45.7701 18.84 46.1328 17.88C46.2608 17.5173 46.4954 17.3787 46.8368 17.464L52.8528 19.032C53.2368 19.1387 53.3861 19.352 53.3008 19.672C52.8314 21.1653 52.0634 22.4987 50.9968 23.672C49.9514 24.8453 48.6714 25.7733 47.1568 26.456C45.6421 27.1173 43.9568 27.448 42.1008 27.448ZM67.824 27.448C66.0533 27.448 64.4107 27.16 62.896 26.584C61.4027 25.9867 60.1013 25.144 58.992 24.056C57.8827 22.968 57.0187 21.6773 56.4 20.184C55.7813 18.6907 55.472 17.048 55.472 15.256C55.472 13.464 55.7813 11.8213 56.4 10.328C57.0187 8.83467 57.8827 7.544 58.992 6.456C60.1013 5.368 61.4027 4.536 62.896 3.96C64.4107 3.36267 66.0533 3.064 67.824 3.064C69.5947 3.064 71.2267 3.36267 72.72 3.96C74.2347 4.536 75.5467 5.368 76.656 6.456C77.7653 7.544 78.6293 8.83467 79.248 10.328C79.8667 11.8213 80.176 13.464 80.176 15.256C80.176 17.048 79.8667 18.6907 79.248 20.184C78.6293 21.6773 77.7653 22.968 76.656 24.056C75.5467 25.144 74.2347 25.9867 72.72 26.584C71.2267 27.16 69.5947 27.448 67.824 27.448ZM67.824 20.376C69.2107 20.376 70.3627 19.9067 71.28 18.968C72.1973 18.0293 72.656 16.792 72.656 15.256C72.656 13.72 72.1973 12.4827 71.28 11.544C70.3627 10.6053 69.2107 10.136 67.824 10.136C66.4373 10.136 65.2853 10.6053 64.368 11.544C63.4507 12.4827 62.992 13.72 62.992 15.256C62.992 16.792 63.4507 18.0293 64.368 18.968C65.2853 19.9067 66.4373 20.376 67.824 20.376Z" fill="#4870E0"/>
</svg>
