<svg width="43" height="43" viewBox="0 0 43 43" fill="none" xmlns="http://www.w3.org/2000/svg">
<circle cx="21.5" cy="21.5" r="21.5" fill="#2283E3"/>
<g clip-path="url(#clip0_208_1833)">
<path d="M16.5 31.3379H26.5" stroke="white" stroke-width="1.40909" stroke-miterlimit="10"/>
<path d="M28 16.9492V20.4021C28 24.2953 25.0834 27.4653 21.4987 27.4653C17.9139 27.4653 15 24.2953 15 20.4021V16.9492" stroke="white" stroke-width="1.40909" stroke-miterlimit="10"/>
<path d="M21.5 24.1435C19.566 24.1435 18 22.4541 18 20.3677V14.0824C18 11.996 19.566 10.3066 21.5 10.3066C23.434 10.3066 25 11.996 25 14.0824V20.3648C25 22.4512 23.434 24.1406 21.5 24.1406V24.1435Z" fill="white"/>
<path d="M21.5 27.4667V31.341" stroke="white" stroke-width="1.40909" stroke-miterlimit="10"/>
</g>
<defs>
<clipPath id="clip0_208_1833">
<rect width="15" height="23" fill="white" transform="translate(14 10)"/>
</clipPath>
</defs>
</svg>
