<svg width="92" height="42" viewBox="0 0 92 42" fill="none" xmlns="http://www.w3.org/2000/svg">
<path d="M6.094 3.438C6.094 4.61867 5.89233 5.682 5.489 6.628C5.08567 7.56667 4.51733 8.36967 3.784 9.037C3.38067 9.40367 3.036 9.686 2.75 9.884C2.464 10.082 2.22567 10.225 2.035 10.313C1.84433 10.401 1.69767 10.445 1.595 10.445C1.49233 10.4377 1.419 10.4083 1.375 10.357L0.638 9.367C1.232 9.05167 1.76 8.69967 2.222 8.311C2.69133 7.915 3.08367 7.47867 3.399 7.002C3.72167 6.52533 3.96367 6.001 4.125 5.429C4.29367 4.84967 4.378 4.219 4.378 3.537V3.02H0.748V1.788H5.83C6.006 1.788 6.094 1.87233 6.094 2.041V3.438ZM7.711 11.721V2.503C7.711 2.31233 7.69267 2.162 7.656 2.052C7.61933 1.93467 7.54967 1.81367 7.447 1.689C7.37367 1.60833 7.35167 1.535 7.381 1.469C7.41767 1.403 7.47633 1.37 7.557 1.37H9.438V4.956H10.868V6.221H9.438V11.721H7.711ZM12.991 8.168C12.991 8.058 12.9727 7.959 12.936 7.871C12.8993 7.783 12.8407 7.69133 12.76 7.596C12.694 7.51533 12.6757 7.442 12.705 7.376C12.7343 7.31 12.7893 7.277 12.87 7.277H14.685V8.278H19.184V7.277H20.878V11.644H14.817C14.487 11.644 14.2047 11.6257 13.97 11.589C13.7353 11.5523 13.5447 11.4827 13.398 11.38C13.2587 11.2847 13.156 11.149 13.09 10.973C13.024 10.8043 12.991 10.5807 12.991 10.302V8.168ZM11.33 4.032C11.33 3.614 11.407 3.24367 11.561 2.921C11.715 2.59833 11.9313 2.32333 12.21 2.096C12.4887 1.86867 12.8223 1.69633 13.211 1.579C13.607 1.46167 14.047 1.403 14.531 1.403C15.015 1.403 15.4513 1.46167 15.84 1.579C16.236 1.69633 16.5733 1.86867 16.852 2.096C17.1307 2.32333 17.347 2.59833 17.501 2.921C17.655 3.24367 17.732 3.614 17.732 4.032C17.732 4.45 17.655 4.82033 17.501 5.143C17.347 5.46567 17.1307 5.74067 16.852 5.968C16.5733 6.19533 16.236 6.36767 15.84 6.485C15.4513 6.60233 15.015 6.661 14.531 6.661C14.047 6.661 13.607 6.60233 13.211 6.485C12.8223 6.36767 12.4887 6.19533 12.21 5.968C11.9313 5.74067 11.715 5.46567 11.561 5.143C11.407 4.82033 11.33 4.45 11.33 4.032ZM19.151 6.683V2.492C19.151 2.30133 19.1327 2.151 19.096 2.041C19.0593 1.92367 18.9897 1.80267 18.887 1.678C18.8137 1.59733 18.7917 1.52767 18.821 1.469C18.8577 1.403 18.9163 1.37 18.997 1.37H20.878V6.683H19.151ZM16.06 4.032C16.06 3.53333 15.9133 3.17033 15.62 2.943C15.334 2.71567 14.971 2.602 14.531 2.602C14.091 2.602 13.7243 2.71567 13.431 2.943C13.145 3.17033 13.002 3.53333 13.002 4.032C13.002 4.53067 13.145 4.89367 13.431 5.121C13.7243 5.34833 14.091 5.462 14.531 5.462C14.971 5.462 15.334 5.34833 15.62 5.121C15.9133 4.89367 16.06 4.53067 16.06 4.032ZM15.191 10.434H19.184V9.477H14.685V9.983C14.685 10.181 14.7217 10.3057 14.795 10.357C14.8757 10.4083 15.0077 10.434 15.191 10.434ZM31.691 10.599V11.765H24.706C24.3247 11.765 24.0533 11.6843 23.892 11.523C23.738 11.3617 23.661 11.116 23.661 10.786V9.961C23.661 9.77767 23.639 9.62733 23.595 9.51C23.551 9.38533 23.4777 9.26067 23.375 9.136C23.309 9.048 23.2907 8.97467 23.32 8.916C23.3493 8.85 23.4043 8.817 23.485 8.817H29.788V8.157H23.628V7.002H31.295C31.383 7.002 31.4453 7.02033 31.482 7.057C31.526 7.08633 31.548 7.14867 31.548 7.244V9.906H25.421V10.39C25.421 10.5293 25.4907 10.599 25.63 10.599H31.691ZM26.169 1.491V2.844C26.169 3.16667 26.2423 3.46 26.389 3.724C26.543 3.988 26.7447 4.22633 26.994 4.439C27.2433 4.64433 27.5257 4.824 27.841 4.978C28.1563 5.12467 28.4753 5.23833 28.798 5.319L28.347 6.298C28.325 6.34933 28.2663 6.37867 28.171 6.386C28.083 6.39333 27.962 6.37867 27.808 6.342C27.654 6.30533 27.4743 6.24667 27.269 6.166C27.071 6.078 26.8547 5.96433 26.62 5.825C26.3853 5.67833 26.1543 5.50967 25.927 5.319C25.707 5.12833 25.5127 4.91567 25.344 4.681C25.1387 4.93767 24.9187 5.17967 24.684 5.407C24.4567 5.63433 24.1927 5.85067 23.892 6.056C23.7233 6.166 23.5473 6.27233 23.364 6.375C23.1807 6.47033 23.0083 6.54733 22.847 6.606C22.6857 6.66467 22.5463 6.69767 22.429 6.705C22.3117 6.71233 22.2347 6.683 22.198 6.617L21.681 5.671C22.0477 5.539 22.3923 5.38133 22.715 5.198C23.045 5.01467 23.3347 4.80933 23.584 4.582C23.8333 4.35467 24.0277 4.10533 24.167 3.834C24.3137 3.55533 24.387 3.262 24.387 2.954V2.602C24.387 2.41867 24.3723 2.272 24.343 2.162C24.321 2.04467 24.2587 1.92733 24.156 1.81C24.09 1.72933 24.0717 1.656 24.101 1.59C24.1303 1.524 24.1853 1.491 24.266 1.491H26.169ZM29.821 6.419V4.186H27.709V2.943H29.821V2.492C29.821 2.30133 29.8027 2.151 29.766 2.041C29.7293 1.92367 29.6597 1.80267 29.557 1.678C29.4837 1.59733 29.4617 1.52767 29.491 1.469C29.5277 1.403 29.5863 1.37 29.667 1.37H31.548V6.419H29.821ZM38.489 2.569C38.489 2.371 38.4707 2.20967 38.434 2.085C38.4047 1.96033 38.3497 1.84667 38.269 1.744C38.203 1.656 38.1847 1.58267 38.214 1.524C38.2433 1.46533 38.302 1.436 38.39 1.436H40.084V11.424H38.489V8.036H36.344C36.058 8.53467 35.728 8.97833 35.354 9.367C34.8773 9.85833 34.507 10.1847 34.243 10.346C33.9863 10.5073 33.8103 10.5367 33.715 10.434L32.802 9.466C33.242 9.18 33.638 8.85733 33.99 8.498C34.3493 8.13867 34.65 7.74267 34.892 7.31C35.1413 6.87733 35.332 6.41167 35.464 5.913C35.6033 5.407 35.673 4.87167 35.673 4.307V3.075H32.901V1.843H37.037C37.213 1.843 37.301 1.92733 37.301 2.096V3.548H38.489V2.569ZM42.548 1.37V11.721H40.942V1.37H42.548ZM36.894 6.793H38.489V4.791H37.279C37.235 5.473 37.1067 6.14033 36.894 6.793Z" fill="white"/>
<mask id="path-2-outside-1_252_3405" maskUnits="userSpaceOnUse" x="0" y="17" width="54" height="22" fill="black">
<rect fill="white" y="17" width="54" height="22"/>
<path d="M1.76003 37C1.67114 37 1.59114 36.9733 1.52002 36.92C1.46669 36.8489 1.44002 36.7689 1.44002 36.68V18.6531C1.44002 18.5642 1.46669 18.493 1.52002 18.4397C1.59114 18.3686 1.67114 18.333 1.76003 18.333H4.2134C4.30229 18.333 4.3734 18.3686 4.42673 18.4397C4.49785 18.493 4.5334 18.5642 4.5334 18.6531V34.2C4.5334 34.2888 4.57785 34.3333 4.66674 34.3333H10.4268C10.5157 34.3333 10.5868 34.3688 10.6402 34.44C10.7113 34.4933 10.7468 34.5644 10.7468 34.6533V36.68C10.7468 36.7689 10.7113 36.8489 10.6402 36.92C10.5868 36.9733 10.5157 37 10.4268 37H1.76003ZM17.0946 37C17.0057 37 16.9257 36.9733 16.8546 36.92C16.8013 36.8489 16.7746 36.7689 16.7746 36.68V18.6531C16.7746 18.5642 16.8013 18.493 16.8546 18.4397C16.9257 18.3686 17.0057 18.333 17.0946 18.333H19.548C19.6369 18.333 19.708 18.3686 19.7613 18.4397C19.8325 18.493 19.868 18.5642 19.868 18.6531V36.68C19.868 36.7689 19.8325 36.8489 19.7613 36.92C19.708 36.9733 19.6369 37 19.548 37H17.0946ZM31.6984 37.2133C30.1873 37.2133 28.9695 36.76 28.045 35.8533C27.1383 34.9289 26.685 33.7111 26.685 32.1999V23.1065C26.685 21.5775 27.1383 20.3686 28.045 19.4797C28.9695 18.5731 30.1873 18.1197 31.6984 18.1197C33.2273 18.1197 34.454 18.5731 35.3785 19.4797C36.3029 20.3686 36.7651 21.5775 36.7651 23.1065V23.4265C36.7651 23.5153 36.7296 23.5954 36.6585 23.6665C36.6051 23.7376 36.534 23.7731 36.4451 23.7731L33.9651 23.8798C33.7518 23.8798 33.6451 23.7731 33.6451 23.5598V22.8931C33.6451 22.2709 33.4673 21.7642 33.1118 21.3731C32.7562 20.982 32.2851 20.7864 31.6984 20.7864C31.1295 20.7864 30.6673 20.982 30.3117 21.3731C29.9562 21.7642 29.7784 22.2709 29.7784 22.8931V32.4399C29.7784 33.0622 29.9562 33.5688 30.3117 33.96C30.6673 34.3511 31.1295 34.5466 31.6984 34.5466C32.2851 34.5466 32.7562 34.3511 33.1118 33.96C33.4673 33.5688 33.6451 33.0622 33.6451 32.4399V31.7733C33.6451 31.6844 33.6718 31.6133 33.7251 31.5599C33.7962 31.4888 33.8762 31.4532 33.9651 31.4532L36.4451 31.5599C36.534 31.5599 36.6051 31.5955 36.6585 31.6666C36.7296 31.7199 36.7651 31.791 36.7651 31.8799V32.1999C36.7651 33.7111 36.3029 34.9289 35.3785 35.8533C34.454 36.76 33.2273 37.2133 31.6984 37.2133ZM47.9928 37.2933C46.4995 37.2933 45.2994 36.8222 44.3928 35.88C43.4861 34.92 43.0327 33.6666 43.0327 32.1199V23.2131C43.0327 21.6664 43.4861 20.422 44.3928 19.4797C45.2994 18.5197 46.4995 18.0397 47.9928 18.0397C49.5039 18.0397 50.7129 18.5197 51.6195 19.4797C52.544 20.422 53.0062 21.6664 53.0062 23.2131V32.1199C53.0062 33.6666 52.544 34.92 51.6195 35.88C50.7129 36.8222 49.5039 37.2933 47.9928 37.2933ZM47.9928 34.6C48.5795 34.6 49.0417 34.3955 49.3795 33.9866C49.7351 33.5599 49.9128 32.9999 49.9128 32.3066V23.0265C49.9128 22.3331 49.7351 21.782 49.3795 21.3731C49.0417 20.9464 48.5795 20.7331 47.9928 20.7331C47.4239 20.7331 46.9706 20.9464 46.6328 21.3731C46.295 21.782 46.1261 22.3331 46.1261 23.0265V32.3066C46.1261 32.9999 46.295 33.5599 46.6328 33.9866C46.9706 34.3955 47.4239 34.6 47.9928 34.6Z"/>
</mask>
<path d="M1.76003 37C1.67114 37 1.59114 36.9733 1.52002 36.92C1.46669 36.8489 1.44002 36.7689 1.44002 36.68V18.6531C1.44002 18.5642 1.46669 18.493 1.52002 18.4397C1.59114 18.3686 1.67114 18.333 1.76003 18.333H4.2134C4.30229 18.333 4.3734 18.3686 4.42673 18.4397C4.49785 18.493 4.5334 18.5642 4.5334 18.6531V34.2C4.5334 34.2888 4.57785 34.3333 4.66674 34.3333H10.4268C10.5157 34.3333 10.5868 34.3688 10.6402 34.44C10.7113 34.4933 10.7468 34.5644 10.7468 34.6533V36.68C10.7468 36.7689 10.7113 36.8489 10.6402 36.92C10.5868 36.9733 10.5157 37 10.4268 37H1.76003ZM17.0946 37C17.0057 37 16.9257 36.9733 16.8546 36.92C16.8013 36.8489 16.7746 36.7689 16.7746 36.68V18.6531C16.7746 18.5642 16.8013 18.493 16.8546 18.4397C16.9257 18.3686 17.0057 18.333 17.0946 18.333H19.548C19.6369 18.333 19.708 18.3686 19.7613 18.4397C19.8325 18.493 19.868 18.5642 19.868 18.6531V36.68C19.868 36.7689 19.8325 36.8489 19.7613 36.92C19.708 36.9733 19.6369 37 19.548 37H17.0946ZM31.6984 37.2133C30.1873 37.2133 28.9695 36.76 28.045 35.8533C27.1383 34.9289 26.685 33.7111 26.685 32.1999V23.1065C26.685 21.5775 27.1383 20.3686 28.045 19.4797C28.9695 18.5731 30.1873 18.1197 31.6984 18.1197C33.2273 18.1197 34.454 18.5731 35.3785 19.4797C36.3029 20.3686 36.7651 21.5775 36.7651 23.1065V23.4265C36.7651 23.5153 36.7296 23.5954 36.6585 23.6665C36.6051 23.7376 36.534 23.7731 36.4451 23.7731L33.9651 23.8798C33.7518 23.8798 33.6451 23.7731 33.6451 23.5598V22.8931C33.6451 22.2709 33.4673 21.7642 33.1118 21.3731C32.7562 20.982 32.2851 20.7864 31.6984 20.7864C31.1295 20.7864 30.6673 20.982 30.3117 21.3731C29.9562 21.7642 29.7784 22.2709 29.7784 22.8931V32.4399C29.7784 33.0622 29.9562 33.5688 30.3117 33.96C30.6673 34.3511 31.1295 34.5466 31.6984 34.5466C32.2851 34.5466 32.7562 34.3511 33.1118 33.96C33.4673 33.5688 33.6451 33.0622 33.6451 32.4399V31.7733C33.6451 31.6844 33.6718 31.6133 33.7251 31.5599C33.7962 31.4888 33.8762 31.4532 33.9651 31.4532L36.4451 31.5599C36.534 31.5599 36.6051 31.5955 36.6585 31.6666C36.7296 31.7199 36.7651 31.791 36.7651 31.8799V32.1999C36.7651 33.7111 36.3029 34.9289 35.3785 35.8533C34.454 36.76 33.2273 37.2133 31.6984 37.2133ZM47.9928 37.2933C46.4995 37.2933 45.2994 36.8222 44.3928 35.88C43.4861 34.92 43.0327 33.6666 43.0327 32.1199V23.2131C43.0327 21.6664 43.4861 20.422 44.3928 19.4797C45.2994 18.5197 46.4995 18.0397 47.9928 18.0397C49.5039 18.0397 50.7129 18.5197 51.6195 19.4797C52.544 20.422 53.0062 21.6664 53.0062 23.2131V32.1199C53.0062 33.6666 52.544 34.92 51.6195 35.88C50.7129 36.8222 49.5039 37.2933 47.9928 37.2933ZM47.9928 34.6C48.5795 34.6 49.0417 34.3955 49.3795 33.9866C49.7351 33.5599 49.9128 32.9999 49.9128 32.3066V23.0265C49.9128 22.3331 49.7351 21.782 49.3795 21.3731C49.0417 20.9464 48.5795 20.7331 47.9928 20.7331C47.4239 20.7331 46.9706 20.9464 46.6328 21.3731C46.295 21.782 46.1261 22.3331 46.1261 23.0265V32.3066C46.1261 32.9999 46.295 33.5599 46.6328 33.9866C46.9706 34.3955 47.4239 34.6 47.9928 34.6Z" fill="white"/>
<path d="M1.52002 36.92L0.908613 37.3786L0.974121 37.4659L1.06147 37.5314L1.52002 36.92ZM1.52002 18.4397L0.979607 17.8993L0.979606 17.8993L1.52002 18.4397ZM4.42673 18.4397L3.81532 18.8983L3.88083 18.9856L3.96817 19.0511L4.42673 18.4397ZM10.6402 34.44L10.0288 34.8985L10.0943 34.9859L10.1816 35.0514L10.6402 34.44ZM10.6402 36.92L10.0997 36.3796H10.0997L10.6402 36.92ZM1.76003 36.2357C1.79326 36.2357 1.83298 36.2409 1.87504 36.255C1.9171 36.269 1.952 36.2887 1.97858 36.3086L1.06147 37.5314C1.26487 37.684 1.50577 37.7643 1.76003 37.7643V36.2357ZM2.13143 36.4614C2.15137 36.488 2.17105 36.5229 2.18507 36.565C2.19909 36.607 2.20428 36.6468 2.20428 36.68H0.675759C0.675759 36.9342 0.756061 37.1752 0.908613 37.3786L2.13143 36.4614ZM2.20428 36.68V18.6531H0.675759V36.68H2.20428ZM2.20428 18.6531C2.20428 18.6849 2.19944 18.7379 2.17562 18.8014C2.15092 18.8673 2.11147 18.9291 2.06044 18.9801L0.979606 17.8993C0.757574 18.1213 0.675759 18.4004 0.675759 18.6531H2.20428ZM2.06044 18.9801C2.03941 19.0012 2.00122 19.0326 1.94376 19.0581C1.88451 19.0844 1.82083 19.0973 1.76003 19.0973V17.5688C1.44116 17.5688 1.17353 17.7054 0.979607 17.8993L2.06044 18.9801ZM1.76003 19.0973H4.2134V17.5688H1.76003V19.0973ZM4.2134 19.0973C4.15335 19.0973 4.07415 19.0846 3.99161 19.0433C3.90907 19.002 3.85135 18.9463 3.81532 18.8983L5.03814 17.9812C4.84048 17.7176 4.54285 17.5688 4.2134 17.5688V19.0973ZM3.96817 19.0511C3.92014 19.0151 3.86443 18.9574 3.82316 18.8748C3.78189 18.7923 3.76914 18.7131 3.76914 18.6531H5.29767C5.29767 18.3236 5.14885 18.026 4.88529 17.8283L3.96817 19.0511ZM3.76914 18.6531V34.2H5.29767V18.6531H3.76914ZM3.76914 34.2C3.76914 34.3622 3.81022 34.6243 4.02632 34.8404C4.24242 35.0565 4.50449 35.0976 4.66674 35.0976V33.569C4.7401 33.569 4.9355 33.5879 5.10715 33.7595C5.27881 33.9312 5.29767 34.1266 5.29767 34.2H3.76914ZM4.66674 35.0976H10.4268V33.569H4.66674V35.0976ZM10.4268 35.0976C10.3668 35.0976 10.2876 35.0848 10.205 35.0435C10.1225 35.0023 10.0648 34.9466 10.0288 34.8985L11.2516 33.9814C11.0539 33.7178 10.7563 33.569 10.4268 33.569V35.0976ZM10.1816 35.0514C10.1336 35.0153 10.0779 34.9576 10.0366 34.8751C9.99532 34.7925 9.98257 34.7133 9.98257 34.6533H11.5111C11.5111 34.3238 11.3623 34.0262 11.0987 33.8286L10.1816 35.0514ZM9.98257 34.6533V36.68H11.5111V34.6533H9.98257ZM9.98257 36.68C9.98257 36.6192 9.99544 36.5555 10.0218 36.4963C10.0473 36.4388 10.0787 36.4006 10.0997 36.3796L11.1806 37.4604C11.3745 37.2665 11.5111 36.9989 11.5111 36.68H9.98257ZM10.0997 36.3796C10.1508 36.3286 10.2126 36.2891 10.2785 36.2644C10.342 36.2406 10.3949 36.2357 10.4268 36.2357V37.7643C10.6795 37.7643 10.9585 37.6824 11.1806 37.4604L10.0997 36.3796ZM10.4268 36.2357H1.76003V37.7643H10.4268V36.2357ZM16.8546 36.92L16.2432 37.3786L16.3087 37.4659L16.3961 37.5314L16.8546 36.92ZM16.8546 18.4397L16.3142 17.8993V17.8993L16.8546 18.4397ZM19.7613 18.4397L19.1499 18.8983L19.2154 18.9856L19.3028 19.0511L19.7613 18.4397ZM19.7613 36.92L20.3018 37.4604V37.4604L19.7613 36.92ZM17.0946 36.2357C17.1279 36.2357 17.1676 36.2409 17.2097 36.255C17.2517 36.269 17.2866 36.2887 17.3132 36.3086L16.3961 37.5314C16.5995 37.684 16.8404 37.7643 17.0946 37.7643V36.2357ZM17.466 36.4614C17.486 36.488 17.5057 36.5229 17.5197 36.565C17.5337 36.607 17.5389 36.6468 17.5389 36.68H16.0104C16.0104 36.9342 16.0907 37.1752 16.2432 37.3786L17.466 36.4614ZM17.5389 36.68V18.6531H16.0104V36.68H17.5389ZM17.5389 18.6531C17.5389 18.6849 17.5341 18.7379 17.5102 18.8014C17.4855 18.8673 17.4461 18.9291 17.3951 18.9801L16.3142 17.8993C16.0922 18.1213 16.0104 18.4004 16.0104 18.6531H17.5389ZM17.3951 18.9801C17.374 19.0012 17.3358 19.0326 17.2784 19.0581C17.2191 19.0844 17.1554 19.0973 17.0946 19.0973V17.5688C16.7758 17.5688 16.5081 17.7054 16.3142 17.8993L17.3951 18.9801ZM17.0946 19.0973H19.548V17.5688H17.0946V19.0973ZM19.548 19.0973C19.488 19.0973 19.4088 19.0846 19.3262 19.0433C19.2437 19.002 19.186 18.9463 19.1499 18.8983L20.3728 17.9812C20.1751 17.7176 19.8775 17.5688 19.548 17.5688V19.0973ZM19.3028 19.0511C19.2547 19.0151 19.199 18.9574 19.1578 18.8748C19.1165 18.7923 19.1038 18.7131 19.1038 18.6531H20.6323C20.6323 18.3236 20.4835 18.026 20.2199 17.8283L19.3028 19.0511ZM19.1038 18.6531V36.68H20.6323V18.6531H19.1038ZM19.1038 36.68C19.1038 36.6192 19.1166 36.5555 19.143 36.4963C19.1685 36.4388 19.1999 36.4006 19.2209 36.3796L20.3018 37.4604C20.4957 37.2665 20.6323 36.9989 20.6323 36.68H19.1038ZM19.2209 36.3796C19.272 36.3286 19.3338 36.2891 19.3997 36.2644C19.4632 36.2406 19.5161 36.2357 19.548 36.2357V37.7643C19.8006 37.7643 20.0797 37.6824 20.3018 37.4604L19.2209 36.3796ZM19.548 36.2357H17.0946V37.7643H19.548V36.2357ZM28.045 35.8533L27.4994 36.3885L27.5046 36.3938L27.5099 36.399L28.045 35.8533ZM28.045 19.4797L28.58 20.0255L28.5802 20.0254L28.045 19.4797ZM35.3785 19.4797L34.8433 20.0254L34.8487 20.0306L35.3785 19.4797ZM36.6585 23.6665L36.1181 23.126L36.0797 23.1645L36.0471 23.2079L36.6585 23.6665ZM36.4451 23.7731V23.0089H36.4287L36.4123 23.0096L36.4451 23.7731ZM33.9651 23.8798V24.6441H33.9815L33.9979 24.6434L33.9651 23.8798ZM33.1118 21.3731L33.6773 20.859L33.1118 21.3731ZM30.3117 21.3731L29.7462 20.859L30.3117 21.3731ZM30.3117 33.96L29.7462 34.4741L30.3117 33.96ZM33.1118 33.96L33.6773 34.4741L33.1118 33.96ZM33.7251 31.5599L34.2655 32.1003V32.1003L33.7251 31.5599ZM33.9651 31.4532L33.9979 30.6897L33.9815 30.689H33.9651V31.4532ZM36.4451 31.5599L36.4123 32.3235L36.4287 32.3242H36.4451V31.5599ZM36.6585 31.6666L36.0471 32.1251L36.1126 32.2125L36.1999 32.278L36.6585 31.6666ZM35.3785 35.8533L35.9136 36.399L35.9189 36.3937L35.3785 35.8533ZM31.6984 36.4491C30.3514 36.4491 29.338 36.0509 28.5802 35.3077L27.5099 36.399C28.601 37.4691 30.0231 37.9776 31.6984 37.9776V36.4491ZM28.5906 35.3182C27.8474 34.5604 27.4493 33.5469 27.4493 32.1999H25.9207C25.9207 33.8752 26.4292 35.2973 27.4994 36.3885L28.5906 35.3182ZM27.4493 32.1999V23.1065H25.9207V32.1999H27.4493ZM27.4493 23.1065C27.4493 21.7379 27.8492 20.742 28.58 20.0255L27.51 18.934C26.4274 19.9953 25.9207 21.4172 25.9207 23.1065H27.4493ZM28.5802 20.0254C29.338 19.2821 30.3514 18.884 31.6984 18.884V17.3554C30.0231 17.3554 28.601 17.864 27.5099 18.9341L28.5802 20.0254ZM31.6984 18.884C33.066 18.884 34.0872 19.2838 34.8433 20.0254L35.9136 18.9341C34.8208 17.8623 33.3886 17.3554 31.6984 17.3554V18.884ZM34.8487 20.0306C35.5949 20.7481 36.0009 21.7423 36.0009 23.1065H37.5294C37.5294 21.4128 37.011 19.9892 35.9082 18.9288L34.8487 20.0306ZM36.0009 23.1065V23.4265H37.5294V23.1065H36.0009ZM36.0009 23.4265C36.0009 23.3657 36.0138 23.302 36.0401 23.2427C36.0656 23.1853 36.097 23.1471 36.1181 23.126L37.1989 24.2069C37.3928 24.013 37.5294 23.7453 37.5294 23.4265H36.0009ZM36.0471 23.2079C36.0831 23.1599 36.1408 23.1042 36.2234 23.0629C36.3059 23.0216 36.3851 23.0089 36.4451 23.0089V24.5374C36.7746 24.5374 37.0722 24.3886 37.2699 24.125L36.0471 23.2079ZM36.4123 23.0096L33.9323 23.1162L33.9979 24.6434L36.478 24.5367L36.4123 23.0096ZM33.9651 23.1155C33.9762 23.1155 34.125 23.1188 34.2655 23.2594C34.4061 23.3999 34.4094 23.5487 34.4094 23.5598H32.8808C32.8808 23.7843 32.9375 24.093 33.1847 24.3402C33.4319 24.5874 33.7406 24.6441 33.9651 24.6441V23.1155ZM34.4094 23.5598V22.8931H32.8808V23.5598H34.4094ZM34.4094 22.8931C34.4094 22.1165 34.1829 21.4152 33.6773 20.859L32.5462 21.8872C32.7517 22.1132 32.8808 22.4253 32.8808 22.8931H34.4094ZM33.6773 20.859C33.16 20.29 32.4741 20.0222 31.6984 20.0222V21.5507C32.0961 21.5507 32.3523 21.6739 32.5462 21.8872L33.6773 20.859ZM31.6984 20.0222C30.9326 20.0222 30.2586 20.2954 29.7462 20.859L30.8772 21.8872C31.076 21.6686 31.3264 21.5507 31.6984 21.5507V20.0222ZM29.7462 20.859C29.2406 21.4152 29.0141 22.1165 29.0141 22.8931H30.5426C30.5426 22.4253 30.6717 22.1132 30.8772 21.8872L29.7462 20.859ZM29.0141 22.8931V32.4399H30.5426V22.8931H29.0141ZM29.0141 32.4399C29.0141 33.2165 29.2406 33.9179 29.7462 34.4741L30.8772 33.4459C30.6717 33.2198 30.5426 32.9078 30.5426 32.4399H29.0141ZM29.7462 34.4741C30.2586 35.0376 30.9326 35.3109 31.6984 35.3109V33.7824C31.3264 33.7824 31.076 33.6645 30.8772 33.4459L29.7462 34.4741ZM31.6984 35.3109C32.4741 35.3109 33.16 35.043 33.6773 34.4741L32.5462 33.4459C32.3523 33.6591 32.0961 33.7824 31.6984 33.7824V35.3109ZM33.6773 34.4741C34.1829 33.9179 34.4094 33.2165 34.4094 32.4399H32.8808C32.8808 32.9078 32.7517 33.2198 32.5462 33.4459L33.6773 34.4741ZM34.4094 32.4399V31.7733H32.8808V32.4399H34.4094ZM34.4094 31.7733C34.4094 31.8051 34.4045 31.8581 34.3807 31.9216C34.356 31.9875 34.3165 32.0493 34.2655 32.1003L33.1847 31.0195C32.9627 31.2415 32.8808 31.5206 32.8808 31.7733H34.4094ZM34.2655 32.1003C34.2445 32.1214 34.2063 32.1528 34.1488 32.1783C34.0896 32.2046 34.0259 32.2175 33.9651 32.2175V30.689C33.6462 30.689 33.3786 30.8256 33.1847 31.0195L34.2655 32.1003ZM33.9323 32.2168L36.4123 32.3235L36.478 30.7964L33.9979 30.6897L33.9323 32.2168ZM36.4451 32.3242C36.3851 32.3242 36.3059 32.3114 36.2234 32.2702C36.1408 32.2289 36.0831 32.1732 36.0471 32.1251L37.2699 31.208C37.0722 30.9445 36.7746 30.7957 36.4451 30.7957V32.3242ZM36.1999 32.278C36.1519 32.242 36.0962 32.1843 36.0549 32.1017C36.0136 32.0192 36.0009 31.94 36.0009 31.8799H37.5294C37.5294 31.5505 37.3806 31.2528 37.117 31.0552L36.1999 32.278ZM36.0009 31.8799V32.1999H37.5294V31.8799H36.0009ZM36.0009 32.1999C36.0009 33.5426 35.5967 34.5543 34.838 35.3129L35.9189 36.3937C37.0092 35.3034 37.5294 33.8796 37.5294 32.1999H36.0009ZM34.8433 35.3077C34.0872 36.0492 33.066 36.4491 31.6984 36.4491V37.9776C33.3886 37.9776 34.8208 37.4708 35.9136 36.399L34.8433 35.3077ZM44.3928 35.88L43.8371 36.4048L43.8421 36.4099L44.3928 35.88ZM44.3928 19.4797L44.9435 20.0097L44.9484 20.0045L44.3928 19.4797ZM51.6195 19.4797L51.0639 20.0045L51.0689 20.0098L51.074 20.015L51.6195 19.4797ZM51.6195 35.88L51.069 35.3499L51.0688 35.3501L51.6195 35.88ZM49.3795 33.9866L48.7924 33.4973L48.7903 33.4999L49.3795 33.9866ZM49.3795 21.3731L48.7803 21.8475L48.7912 21.8613L48.8028 21.8746L49.3795 21.3731ZM46.6328 21.3731L47.222 21.8598L47.2271 21.8537L47.232 21.8475L46.6328 21.3731ZM46.6328 33.9866L46.0336 34.461L46.0385 34.4672L46.0436 34.4734L46.6328 33.9866ZM47.9928 36.5291C46.675 36.5291 45.6851 36.1208 44.9435 35.3501L43.8421 36.4099C44.9138 37.5236 46.3239 38.0576 47.9928 38.0576V36.5291ZM44.9484 35.3552C44.1984 34.5611 43.797 33.5072 43.797 32.1199H42.2685C42.2685 33.826 42.7738 35.2789 43.8371 36.4047L44.9484 35.3552ZM43.797 32.1199V23.2131H42.2685V32.1199H43.797ZM43.797 23.2131C43.797 21.8254 44.1984 20.7839 44.9435 20.0097L43.8421 18.9498C42.7737 20.06 42.2685 21.5074 42.2685 23.2131H43.797ZM44.9484 20.0045C45.6911 19.218 46.6795 18.804 47.9928 18.804V17.2754C46.3195 17.2754 44.9077 17.8214 43.8371 18.955L44.9484 20.0045ZM47.9928 18.804C49.327 18.804 50.323 19.22 51.0639 20.0045L52.1752 18.955C51.1028 17.8195 49.6809 17.2754 47.9928 17.2754V18.804ZM51.074 20.015C51.8344 20.79 52.242 21.8296 52.242 23.2131H53.7705C53.7705 21.5032 53.2536 20.054 52.1651 18.9445L51.074 20.015ZM52.242 23.2131V32.1199H53.7705V23.2131H52.242ZM52.242 32.1199C52.242 33.503 51.8344 34.5551 51.069 35.3499L52.1701 36.4101C53.2536 35.2849 53.7705 33.8302 53.7705 32.1199H52.242ZM51.0688 35.3501C50.329 36.1189 49.3314 36.5291 47.9928 36.5291V38.0576C49.6765 38.0576 51.0968 37.5255 52.1702 36.4099L51.0688 35.3501ZM47.9928 35.3642C48.78 35.3642 49.4692 35.0781 49.9687 34.4734L48.7903 33.4999C48.6143 33.7129 48.3789 33.8357 47.9928 33.8357V35.3642ZM49.9666 34.4759C50.4628 33.8804 50.6771 33.133 50.6771 32.3066H49.1486C49.1486 32.8668 49.0073 33.2395 48.7924 33.4974L49.9666 34.4759ZM50.6771 32.3066V23.0265H49.1486V32.3066H50.6771ZM50.6771 23.0265C50.6771 22.2017 50.4634 21.4549 49.9562 20.8716L48.8028 21.8746C49.0067 22.1091 49.1486 22.4645 49.1486 23.0265H50.6771ZM49.9787 20.8987C49.4835 20.2731 48.7921 19.9688 47.9928 19.9688V21.4973C48.3669 21.4973 48.6 21.6197 48.7803 21.8475L49.9787 20.8987ZM47.9928 19.9688C47.2027 19.9688 46.5238 20.2795 46.0336 20.8987L47.232 21.8475C47.4174 21.6133 47.6452 21.4973 47.9928 21.4973V19.9688ZM46.0436 20.8863C45.5618 21.4695 45.3619 22.2107 45.3619 23.0265H46.8904C46.8904 22.4555 47.0282 22.0945 47.222 21.8598L46.0436 20.8863ZM45.3619 23.0265V32.3066H46.8904V23.0265H45.3619ZM45.3619 32.3066C45.3619 33.1242 45.5625 33.866 46.0336 34.461L47.232 33.5122C47.0275 33.2539 46.8904 32.8757 46.8904 32.3066H45.3619ZM46.0436 34.4734C46.5382 35.0721 47.2149 35.3642 47.9928 35.3642V33.8357C47.633 33.8357 47.403 33.7189 47.222 33.4999L46.0436 34.4734Z" fill="white" mask="url(#path-2-outside-1_252_3405)"/>
<mask id="path-4-outside-2_252_3405" maskUnits="userSpaceOnUse" x="68.4453" y="17" width="23" height="21" fill="black">
<rect fill="white" x="68.4453" y="17" width="23" height="21"/>
<path d="M78.4588 37C78.2454 37 78.1299 36.9022 78.1121 36.7067L77.6054 33.9066C77.6054 33.8177 77.5521 33.7733 77.4454 33.7733H73.552C73.4454 33.7733 73.392 33.8177 73.392 33.9066L72.8854 36.7067C72.8676 36.9022 72.752 37 72.5387 37H70.112C69.8631 37 69.7653 36.8844 69.8187 36.6533L73.7654 18.6264C73.8009 18.4308 73.9165 18.333 74.1121 18.333H76.9388C77.1343 18.333 77.2499 18.4308 77.2854 18.6264L81.2322 36.6533V36.76C81.2322 36.92 81.1344 37 80.9388 37H78.4588ZM73.872 31.2132C73.8543 31.3021 73.8987 31.3466 74.0054 31.3466H76.9654C77.0721 31.3466 77.1165 31.3021 77.0988 31.2132L75.5521 22.7864C75.5343 22.7331 75.5076 22.7064 75.4721 22.7064C75.4365 22.7064 75.4098 22.7331 75.3921 22.7864L73.872 31.2132ZM87.6337 37C87.5448 37 87.4648 36.9733 87.3937 36.92C87.3404 36.8489 87.3137 36.7689 87.3137 36.68V18.6531C87.3137 18.5642 87.3404 18.493 87.3937 18.4397C87.4648 18.3686 87.5448 18.333 87.6337 18.333H90.0871C90.176 18.333 90.2471 18.3686 90.3004 18.4397C90.3715 18.493 90.4071 18.5642 90.4071 18.6531V36.68C90.4071 36.7689 90.3715 36.8489 90.3004 36.92C90.2471 36.9733 90.176 37 90.0871 37H87.6337Z"/>
</mask>
<path d="M78.4588 37C78.2454 37 78.1299 36.9022 78.1121 36.7067L77.6054 33.9066C77.6054 33.8177 77.5521 33.7733 77.4454 33.7733H73.552C73.4454 33.7733 73.392 33.8177 73.392 33.9066L72.8854 36.7067C72.8676 36.9022 72.752 37 72.5387 37H70.112C69.8631 37 69.7653 36.8844 69.8187 36.6533L73.7654 18.6264C73.8009 18.4308 73.9165 18.333 74.1121 18.333H76.9388C77.1343 18.333 77.2499 18.4308 77.2854 18.6264L81.2322 36.6533V36.76C81.2322 36.92 81.1344 37 80.9388 37H78.4588ZM73.872 31.2132C73.8543 31.3021 73.8987 31.3466 74.0054 31.3466H76.9654C77.0721 31.3466 77.1165 31.3021 77.0988 31.2132L75.5521 22.7864C75.5343 22.7331 75.5076 22.7064 75.4721 22.7064C75.4365 22.7064 75.4098 22.7331 75.3921 22.7864L73.872 31.2132ZM87.6337 37C87.5448 37 87.4648 36.9733 87.3937 36.92C87.3404 36.8489 87.3137 36.7689 87.3137 36.68V18.6531C87.3137 18.5642 87.3404 18.493 87.3937 18.4397C87.4648 18.3686 87.5448 18.333 87.6337 18.333H90.0871C90.176 18.333 90.2471 18.3686 90.3004 18.4397C90.3715 18.493 90.4071 18.5642 90.4071 18.6531V36.68C90.4071 36.7689 90.3715 36.8489 90.3004 36.92C90.2471 36.9733 90.176 37 90.0871 37H87.6337Z" fill="white"/>
<path d="M78.1121 36.7067L78.8732 36.6375L78.8702 36.6038L78.8642 36.5706L78.1121 36.7067ZM77.6054 33.9066H76.8412V33.9752L76.8534 34.0427L77.6054 33.9066ZM73.392 33.9066L74.1441 34.0427L74.1563 33.9752V33.9066H73.392ZM72.8854 36.7067L72.1333 36.5706L72.1273 36.6038L72.1242 36.6375L72.8854 36.7067ZM69.8187 36.6533L70.5634 36.8252L70.5652 36.8168L69.8187 36.6533ZM73.7654 18.6264L74.512 18.7898L74.5149 18.7765L74.5173 18.7631L73.7654 18.6264ZM77.2854 18.6264L76.5335 18.7631L76.5359 18.7765L76.5389 18.7898L77.2854 18.6264ZM81.2322 36.6533H81.9964V36.5706L81.9787 36.4899L81.2322 36.6533ZM73.872 31.2132L74.6215 31.3631L74.6229 31.356L74.6242 31.3489L73.872 31.2132ZM77.0988 31.2132L76.347 31.3512L76.3493 31.3631L77.0988 31.2132ZM75.5521 22.7864L76.3038 22.6485L76.2941 22.5957L76.2771 22.5448L75.5521 22.7864ZM75.3921 22.7864L74.667 22.5448L74.6497 22.5968L74.6399 22.6508L75.3921 22.7864ZM78.4588 36.2357C78.4598 36.2357 78.5785 36.2355 78.7058 36.3432C78.8429 36.4592 78.8696 36.5972 78.8732 36.6375L77.351 36.7759C77.3724 37.0117 77.4658 37.2963 77.7184 37.5101C77.9613 37.7156 78.2445 37.7643 78.4588 37.7643V36.2357ZM78.8642 36.5706L78.3575 33.7705L76.8534 34.0427L77.3601 36.8427L78.8642 36.5706ZM78.3697 33.9066C78.3697 33.704 78.3023 33.4258 78.0547 33.2195C77.8338 33.0354 77.5861 33.009 77.4454 33.009V34.5375C77.4115 34.5375 77.2437 34.5334 77.0762 34.3937C76.8819 34.2319 76.8412 34.0203 76.8412 33.9066H78.3697ZM77.4454 33.009H73.552V34.5375H77.4454V33.009ZM73.552 33.009C73.4114 33.009 73.1636 33.0354 72.9428 33.2195C72.6952 33.4258 72.6278 33.704 72.6278 33.9066H74.1563C74.1563 34.0203 74.1155 34.2319 73.9213 34.3937C73.7538 34.5334 73.586 34.5375 73.552 34.5375V33.009ZM72.64 33.7705L72.1333 36.5706L73.6374 36.8427L74.1441 34.0427L72.64 33.7705ZM72.1242 36.6375C72.1279 36.5972 72.1546 36.4592 72.2917 36.3432C72.419 36.2355 72.5377 36.2357 72.5387 36.2357V37.7643C72.753 37.7643 73.0362 37.7156 73.279 37.5101C73.5317 37.2963 73.625 37.0117 73.6465 36.7759L72.1242 36.6375ZM72.5387 36.2357H70.112V37.7643H72.5387V36.2357ZM70.112 36.2357C70.0709 36.2357 70.2675 36.2212 70.4354 36.4197C70.5202 36.5199 70.5548 36.628 70.565 36.7078C70.5743 36.78 70.5636 36.8242 70.5633 36.8252L69.074 36.4815C69.0244 36.6963 68.9919 37.0801 69.2686 37.407C69.5342 37.721 69.9042 37.7643 70.112 37.7643V36.2357ZM70.5652 36.8168L74.512 18.7898L73.0188 18.4629L69.0721 36.4899L70.5652 36.8168ZM74.5173 18.7631C74.5134 18.7845 74.4872 18.8926 74.3724 18.9898C74.256 19.0883 74.1412 19.0973 74.1121 19.0973V17.5688C73.8873 17.5688 73.617 17.6267 73.385 17.823C73.1546 18.0179 73.0529 18.2727 73.0134 18.4897L74.5173 18.7631ZM74.1121 19.0973H76.9388V17.5688H74.1121V19.0973ZM76.9388 19.0973C76.9096 19.0973 76.7948 19.0883 76.6784 18.9898C76.5636 18.8926 76.5374 18.7845 76.5335 18.7631L78.0374 18.4897C77.9979 18.2727 77.8962 18.0179 77.6658 17.823C77.4338 17.6267 77.1635 17.5688 76.9388 17.5688V19.0973ZM76.5389 18.7898L80.4856 36.8168L81.9787 36.4899L78.032 18.4629L76.5389 18.7898ZM80.4679 36.6533V36.76H81.9964V36.6533H80.4679ZM80.4679 36.76C80.4679 36.6772 80.5006 36.491 80.6749 36.3485C80.7485 36.2882 80.8199 36.2603 80.8661 36.2477C80.9105 36.2355 80.9381 36.2357 80.9388 36.2357V37.7643C81.1213 37.7643 81.4001 37.73 81.6428 37.5315C81.9148 37.309 81.9964 37.0028 81.9964 36.76H80.4679ZM80.9388 36.2357H78.4588V37.7643H80.9388V36.2357ZM73.1226 31.0634C73.0875 31.2392 73.077 31.579 73.3516 31.8537C73.5895 32.0915 73.8819 32.1108 74.0054 32.1108V30.5823C74.0222 30.5823 74.239 30.5794 74.4325 30.7728C74.6626 31.003 74.6389 31.2762 74.6215 31.3631L73.1226 31.0634ZM74.0054 32.1108H76.9654V30.5823H74.0054V32.1108ZM76.9654 32.1108C77.0889 32.1108 77.3813 32.0915 77.6192 31.8537C77.8938 31.579 77.8833 31.2392 77.8482 31.0634L76.3493 31.3631C76.332 31.2762 76.3082 31.003 76.5383 30.7728C76.7318 30.5794 76.9486 30.5823 76.9654 30.5823V32.1108ZM77.8505 31.0753L76.3038 22.6485L74.8004 22.9244L76.3471 31.3512L77.8505 31.0753ZM76.2771 22.5448C76.2261 22.3916 76.0153 21.9422 75.4721 21.9422V23.4707C75.2739 23.4707 75.0987 23.3872 74.9783 23.2669C74.8768 23.1653 74.8388 23.0633 74.827 23.0281L76.2771 22.5448ZM75.4721 21.9422C74.9289 21.9422 74.7181 22.3916 74.667 22.5448L76.1171 23.0281C76.1054 23.0633 76.0674 23.1653 75.9658 23.2669C75.8455 23.3872 75.6702 23.4707 75.4721 23.4707V21.9422ZM74.6399 22.6508L73.1199 31.0776L74.6242 31.3489L76.1442 22.9221L74.6399 22.6508ZM87.3937 36.92L86.7823 37.3786L86.8478 37.4659L86.9352 37.5314L87.3937 36.92ZM87.3937 18.4397L86.8533 17.8993V17.8993L87.3937 18.4397ZM90.3004 18.4397L89.689 18.8983L89.7545 18.9856L89.8419 19.0511L90.3004 18.4397ZM90.3004 36.92L90.8408 37.4604V37.4604L90.3004 36.92ZM87.6337 36.2357C87.6669 36.2357 87.7067 36.2409 87.7487 36.255C87.7908 36.269 87.8257 36.2887 87.8523 36.3086L86.9352 37.5314C87.1386 37.684 87.3795 37.7643 87.6337 37.7643V36.2357ZM88.0051 36.4614C88.0251 36.488 88.0447 36.5229 88.0588 36.565C88.0728 36.607 88.078 36.6468 88.078 36.68H86.5494C86.5494 36.9342 86.6297 37.1752 86.7823 37.3786L88.0051 36.4614ZM88.078 36.68V18.6531H86.5494V36.68H88.078ZM88.078 18.6531C88.078 18.6849 88.0731 18.7379 88.0493 18.8014C88.0246 18.8673 87.9852 18.9291 87.9341 18.9801L86.8533 17.8993C86.6313 18.1213 86.5494 18.4004 86.5494 18.6531H88.078ZM87.9341 18.9801C87.9131 19.0012 87.8749 19.0326 87.8174 19.0581C87.7582 19.0844 87.6945 19.0973 87.6337 19.0973V17.5688C87.3148 17.5688 87.0472 17.7054 86.8533 17.8993L87.9341 18.9801ZM87.6337 19.0973H90.0871V17.5688H87.6337V19.0973ZM90.0871 19.0973C90.027 19.0973 89.9478 19.0846 89.8653 19.0433C89.7828 19.002 89.725 18.9463 89.689 18.8983L90.9118 17.9812C90.7142 17.7176 90.4165 17.5688 90.0871 17.5688V19.0973ZM89.8419 19.0511C89.7938 19.0151 89.7381 18.9574 89.6968 18.8748C89.6556 18.7923 89.6428 18.7131 89.6428 18.6531H91.1714C91.1714 18.3236 91.0225 18.026 90.759 17.8283L89.8419 19.0511ZM89.6428 18.6531V36.68H91.1714V18.6531H89.6428ZM89.6428 36.68C89.6428 36.6192 89.6557 36.5555 89.682 36.4963C89.7076 36.4388 89.739 36.4006 89.76 36.3796L90.8408 37.4604C91.0348 37.2665 91.1714 36.9989 91.1714 36.68H89.6428ZM89.76 36.3796C89.811 36.3286 89.8729 36.2891 89.9387 36.2644C90.0023 36.2406 90.0552 36.2357 90.0871 36.2357V37.7643C90.3397 37.7643 90.6188 37.6824 90.8408 37.4604L89.76 36.3796ZM90.0871 36.2357H87.6337V37.7643H90.0871V36.2357Z" fill="white" mask="url(#path-4-outside-2_252_3405)"/>
<mask id="path-6-outside-3_252_3405" maskUnits="userSpaceOnUse" x="59" y="21" width="7" height="15" fill="black">
<rect fill="white" x="59" y="21" width="7" height="15"/>
<path d="M62.4134 26.1199C61.8623 26.1199 61.4089 25.9421 61.0534 25.5865C60.6978 25.231 60.52 24.7776 60.52 24.2265C60.52 23.6754 60.6978 23.222 61.0534 22.8665C61.4089 22.5109 61.8623 22.3331 62.4134 22.3331C62.9645 22.3331 63.409 22.5109 63.7467 22.8665C64.1023 23.222 64.2801 23.6754 64.2801 24.2265C64.2801 24.7776 64.1023 25.231 63.7467 25.5865C63.3912 25.9421 62.9467 26.1199 62.4134 26.1199ZM62.4134 34.9467C61.8623 34.9467 61.4089 34.7689 61.0534 34.4133C60.6978 34.0578 60.52 33.6044 60.52 33.0533C60.52 32.5022 60.6978 32.0488 61.0534 31.6933C61.4089 31.3377 61.8623 31.1599 62.4134 31.1599C62.9645 31.1599 63.409 31.3377 63.7467 31.6933C64.1023 32.0488 64.2801 32.5022 64.2801 33.0533C64.2801 33.6044 64.1023 34.0578 63.7467 34.4133C63.3912 34.7689 62.9467 34.9467 62.4134 34.9467Z"/>
</mask>
<path d="M62.4134 26.1199C61.8623 26.1199 61.4089 25.9421 61.0534 25.5865C60.6978 25.231 60.52 24.7776 60.52 24.2265C60.52 23.6754 60.6978 23.222 61.0534 22.8665C61.4089 22.5109 61.8623 22.3331 62.4134 22.3331C62.9645 22.3331 63.409 22.5109 63.7467 22.8665C64.1023 23.222 64.2801 23.6754 64.2801 24.2265C64.2801 24.7776 64.1023 25.231 63.7467 25.5865C63.3912 25.9421 62.9467 26.1199 62.4134 26.1199ZM62.4134 34.9467C61.8623 34.9467 61.4089 34.7689 61.0534 34.4133C60.6978 34.0578 60.52 33.6044 60.52 33.0533C60.52 32.5022 60.6978 32.0488 61.0534 31.6933C61.4089 31.3377 61.8623 31.1599 62.4134 31.1599C62.9645 31.1599 63.409 31.3377 63.7467 31.6933C64.1023 32.0488 64.2801 32.5022 64.2801 33.0533C64.2801 33.6044 64.1023 34.0578 63.7467 34.4133C63.3912 34.7689 62.9467 34.9467 62.4134 34.9467Z" fill="white"/>
<path d="M61.0534 25.5865L61.5938 25.0461L61.0534 25.5865ZM61.0534 22.8665L61.5938 23.4069L61.5938 23.4069L61.0534 22.8665ZM63.7467 22.8665L63.1926 23.3929L63.1994 23.4L63.2063 23.4069L63.7467 22.8665ZM63.7467 25.5865L63.2063 25.0461H63.2063L63.7467 25.5865ZM61.0534 34.4133L61.5938 33.8729L61.0534 34.4133ZM61.0534 31.6933L61.5938 32.2337H61.5938L61.0534 31.6933ZM63.7467 31.6933L63.1926 32.2197L63.1994 32.2268L63.2063 32.2337L63.7467 31.6933ZM63.7467 34.4133L63.2063 33.8729H63.2063L63.7467 34.4133ZM62.4134 25.3556C62.0436 25.3556 61.7916 25.2439 61.5938 25.0461L60.5129 26.1269C61.0263 26.6403 61.681 26.8841 62.4134 26.8841V25.3556ZM61.5938 25.0461C61.396 24.8483 61.2843 24.5963 61.2843 24.2265H59.7558C59.7558 24.9589 59.9996 25.6136 60.5129 26.1269L61.5938 25.0461ZM61.2843 24.2265C61.2843 23.8567 61.396 23.6047 61.5938 23.4069L60.5129 22.3261C59.9996 22.8394 59.7558 23.4941 59.7558 24.2265H61.2843ZM61.5938 23.4069C61.7916 23.2091 62.0436 23.0974 62.4134 23.0974V21.5689C61.681 21.5689 61.0263 21.8127 60.5129 22.3261L61.5938 23.4069ZM62.4134 23.0974C62.7836 23.0974 63.0177 23.2087 63.1926 23.3929L64.3008 22.3401C63.8002 21.8131 63.1455 21.5689 62.4134 21.5689V23.0974ZM63.2063 23.4069C63.4041 23.6047 63.5158 23.8567 63.5158 24.2265H65.0443C65.0443 23.4941 64.8005 22.8394 64.2872 22.3261L63.2063 23.4069ZM63.5158 24.2265C63.5158 24.5963 63.4041 24.8483 63.2063 25.0461L64.2872 26.1269C64.8005 25.6136 65.0443 24.9589 65.0443 24.2265H63.5158ZM63.2063 25.0461C63.0035 25.249 62.7577 25.3556 62.4134 25.3556V26.8841C63.1358 26.8841 63.7789 26.6352 64.2872 26.1269L63.2063 25.0461ZM62.4134 34.1824C62.0436 34.1824 61.7916 34.0707 61.5938 33.8729L60.5129 34.9537C61.0263 35.4671 61.681 35.7109 62.4134 35.7109V34.1824ZM61.5938 33.8729C61.396 33.6751 61.2843 33.4231 61.2843 33.0533H59.7558C59.7558 33.7857 59.9996 34.4404 60.5129 34.9537L61.5938 33.8729ZM61.2843 33.0533C61.2843 32.6835 61.396 32.4315 61.5938 32.2337L60.5129 31.1529C59.9996 31.6662 59.7558 32.3209 59.7558 33.0533H61.2843ZM61.5938 32.2337C61.7916 32.0359 62.0436 31.9242 62.4134 31.9242V30.3957C61.681 30.3957 61.0263 30.6395 60.5129 31.1529L61.5938 32.2337ZM62.4134 31.9242C62.7836 31.9242 63.0177 32.0355 63.1926 32.2197L64.3008 31.1669C63.8002 30.6399 63.1455 30.3957 62.4134 30.3957V31.9242ZM63.2063 32.2337C63.4041 32.4315 63.5158 32.6835 63.5158 33.0533H65.0443C65.0443 32.3209 64.8005 31.6662 64.2872 31.1529L63.2063 32.2337ZM63.5158 33.0533C63.5158 33.4231 63.4041 33.6751 63.2063 33.8729L64.2872 34.9537C64.8005 34.4404 65.0443 33.7857 65.0443 33.0533H63.5158ZM63.2063 33.8729C63.0035 34.0758 62.7577 34.1824 62.4134 34.1824V35.7109C63.1358 35.7109 63.7789 35.462 64.2872 34.9537L63.2063 33.8729Z" fill="white" mask="url(#path-6-outside-3_252_3405)"/>
</svg>
